<svg width="512" height="512" viewBox="0 0 512 512" fill="none" xmlns="http://www.w3.org/2000/svg">
<path d="M294.081 85.7012C318.923 52.1968 349.607 34.8255 388.405 32.3C411.325 30.8075 430.216 34.982 435.129 42.6243C439.905 50.0564 435.466 62.6959 422.628 78.208C414.19 88.404 407.634 93.6774 380.013 112.482C349.993 132.92 341.807 142.485 341.928 156.983C342.033 169.3 350.119 183.179 359.819 187.685C363.486 189.388 364.73 188.087 368.999 178.095C370.747 174.002 373.537 167.524 375.196 163.7L378.212 156.75L381.734 158.607C386.711 161.23 386.931 162.024 384.781 169.57C382.731 176.753 382.787 185.075 384.886 185.777C385.588 186.011 391.214 183.1 397.387 179.305C408.055 172.748 408.693 172.52 410.255 174.695C411.164 175.954 411.614 178.083 411.263 179.428C410.912 180.772 410.614 182.773 410.606 183.873C410.596 185.169 407.851 187.063 402.833 189.236C398.566 191.084 394.125 193.667 392.964 194.975C390.946 197.249 390.954 197.415 393.133 198.781C394.388 199.565 399.772 201.861 405.101 203.882C415.731 207.914 417.409 210.325 413.651 216.17C411.022 220.263 408.583 219.945 399.051 214.266C390.271 209.036 387.684 208.414 385.559 211.026C384.146 212.761 384.824 217.978 387.941 229.354C389.442 234.837 389.394 235.401 387.277 236.979C386.02 237.915 383.111 239.042 380.812 239.482C375.234 240.548 374.183 238.866 372.283 225.842C370.117 211.015 367.295 208.596 356.63 212.432C348.91 215.208 343.7 214.687 335.117 210.283C329.06 207.176 326.481 204.935 323.171 199.903C320.772 196.255 318.046 193.485 316.856 193.485C314.8 193.485 305.486 204.493 298.104 215.649C291.634 225.425 281.452 246.126 276.241 260.105C271.079 273.95 266.104 294.875 267.632 296.328C268.106 296.779 272.542 294.754 277.487 291.826C287.447 285.932 302.096 281.496 311.589 281.499C324.439 281.503 329.754 287.908 333.748 308.208C334.973 314.429 336.264 319.819 336.618 320.18C337.717 321.298 341.698 319.503 349.457 314.392C357.956 308.791 360.964 308.686 363.944 313.889C367.525 320.135 366.922 321.122 355.37 327.918C349.401 331.427 344.724 334.934 344.976 335.707C345.27 336.614 349.771 337.24 357.627 337.464C370.959 337.844 371.414 338.181 368.651 345.593C367.515 348.634 367.166 348.728 356.758 348.728C350.859 348.728 345.179 349.062 344.137 349.469C341.044 350.681 341.92 354.388 347.728 364.654C350.746 369.987 353.035 375.313 352.813 376.484C352.593 377.656 351.068 379.301 349.425 380.135C345.477 382.147 343.349 379.98 336.916 367.409C332.879 359.521 331.499 357.83 328.832 357.517C324.964 357.063 323.916 358.758 321.793 368.899C319.703 378.9 318.947 379.667 311.881 378.974C305.039 378.303 303.538 376.613 304.564 370.731C306.952 357.057 308.625 343.638 308.644 337.994C308.668 330.689 306.146 323.403 303.194 322.248C298.764 320.514 273.571 331.743 261.601 340.784L255.905 345.085V357.36C255.905 371.407 258.312 383.915 263.067 394.568C271.025 412.404 287.295 427.843 306.266 435.565C345.506 451.533 389.536 435.961 406.618 400.068C413.088 386.469 414.782 378.843 414.624 364.009C414.42 344.606 408.741 329.732 395.42 313.728C390.311 307.587 389.314 305.747 390.78 305.175C398.773 302.048 418.559 325.056 426.471 346.682C429.54 355.07 430.216 358.94 430.69 370.79C431.165 382.676 430.843 386.442 428.653 394.627C422.992 415.801 409.706 436.841 394.661 448.463C390.563 451.632 381.811 456.867 375.215 460.098C341.732 476.5 305.111 475.935 270.894 458.493C256.886 451.351 247.154 443.958 234.321 430.71C214.62 410.371 203.057 389.337 195.922 360.839C194.523 355.26 192.304 349.153 190.987 347.27C189.352 344.93 182.692 340.936 169.957 334.664C159.707 329.614 150.023 325.15 148.438 324.746C144.335 323.697 142.501 325.789 139.384 335.068C136.932 342.373 136.671 345.232 136.893 362.353C137.098 378.193 136.826 381.743 135.317 383.019C133.495 384.562 123.26 385.049 121.898 383.663C121.502 383.259 120.81 377.506 120.359 370.875C119.908 364.247 119.162 358.202 118.702 357.442C118.241 356.683 116.652 356.062 115.168 356.062C113.06 356.062 110.682 358.871 104.302 368.899C95.4404 382.821 93.023 384.364 89.8586 378.126C86.6079 371.718 87.4916 369.078 96.4225 358.507C101.039 353.042 104.816 348.041 104.816 347.391C104.816 344.809 100.464 344.847 87.9328 347.527C75.2786 350.234 74.7557 350.253 72.4391 348.115C69.7386 345.625 69.0852 337.25 71.4725 335.747C72.2592 335.252 78.0605 334.675 84.3631 334.466C96.6803 334.057 100.953 333.361 103.285 331.387C105.888 329.186 102.771 325.714 94.2774 321.354C89.8513 319.081 84.953 316.168 83.3931 314.881L80.5546 312.538L83.7455 306.119C87.6677 298.228 88.8824 298.394 100.02 308.363C104.307 312.201 109.21 316.256 110.916 317.377C113.826 319.284 114.133 319.279 115.853 317.262C116.861 316.08 120.425 309.275 123.774 302.139C130.345 288.134 134.564 283.333 141.453 282.015C146.545 281.041 158.432 283.917 169.932 288.906C174.486 290.881 178.561 292.496 178.988 292.495C179.414 292.492 179.835 285.478 179.923 276.909C180.014 268.323 180.958 256.723 182.027 251.072C186.34 228.311 197.742 200.927 212.371 178.205C216.268 172.154 219.865 166.516 220.364 165.673C220.964 164.667 220.155 163.709 218.003 162.875C211.136 160.214 210.176 155.231 213.435 139.161C214.81 132.382 214.977 129.365 214.033 128.209C213.213 127.2 208.442 126.352 201.06 125.903C190.993 125.291 189.092 124.826 187.27 122.532C185.166 119.882 184.346 114.093 186.056 113.96C186.552 113.921 192.547 113.702 199.38 113.474C216.025 112.917 217.295 111.749 211.154 102.659C208.721 99.0569 205.381 94.8203 203.738 93.2432C202.092 91.6678 200.757 89.5114 200.771 88.4527C200.8 86.3 209.144 79.8033 211.881 79.8033C212.878 79.8033 214.746 82.5805 216.199 86.2206C220.554 97.1391 222.862 101.195 224.725 101.195C225.77 101.195 228.807 96.644 232.018 90.2606C235.044 84.2477 238.057 79.1442 238.714 78.9219C240.946 78.1628 246.312 83.5742 246.312 86.5862C246.312 88.2023 243.884 93.2152 240.914 97.7259C232.865 109.963 233.519 111.585 246.505 111.585H253.697L252.911 115.558C251.732 121.544 247.261 125.031 240.769 125.031C232.723 125.031 230.723 126.569 230.723 132.748C230.723 137.909 233.299 143.367 235.736 143.367C238.022 143.367 252.574 132.101 261.695 123.269C270.781 114.469 284.856 98.1426 294.081 85.7012Z" fill="#C8B8A8"/>
</svg>
